<?xml version="1.0" encoding="UTF-8"?>
<svg width="62px" height="68px" viewBox="0 0 62 68" version="1.1" xmlns="http://www.w3.org/2000/svg" xmlns:xlink="http://www.w3.org/1999/xlink">
    <title>export</title>
    <g id="Page-1" stroke="none" stroke-width="1" fill="none" fill-rule="evenodd">
        <g id="export" fill="#333333" fill-rule="nonzero">
            <path d="M49.946,23.348 L39.834,23.348 L39.834,29.348 L49.946,29.348 C52.953,29.348 55.286,30.884 55.286,32.206 L55.286,58.812 C55.286,60.134 52.953,61.67 49.946,61.67 L11.724,61.67 C8.717,61.67 6.384,60.134 6.384,58.812 L6.384,32.207 C6.384,30.885 8.717,29.349 11.724,29.349 L21.834,29.349 L21.834,23.349 L11.724,23.349 C5.365,23.349 0.384,27.24 0.384,32.207 L0.384,58.813 C0.384,63.781 5.365,67.671 11.724,67.671 L49.947,67.671 C56.305,67.671 61.287,63.78 61.287,58.813 L61.287,32.207 C61.286,27.239 56.305,23.348 49.946,23.348 Z" id="Path"></path>
            <path d="M21.957,14.955 C22.725,14.955 23.492,14.662 24.078,14.076 L27.834,10.32 L27.834,23.348 L27.834,29.348 L27.834,40.842 C27.834,42.499 29.177,43.842 30.834,43.842 C32.491,43.842 33.834,42.499 33.834,40.842 L33.834,29.348 L33.834,23.348 L33.834,10.117 L37.793,14.076 C38.379,14.662 39.147,14.955 39.914,14.955 C40.681,14.955 41.449,14.662 42.035,14.076 C43.207,12.905 43.207,11.005 42.035,9.834 L33.078,0.877 C32.492,0.291 31.725,0 30.958,0 C30.95,0 30.943,0 30.935,0 C30.927,0 30.92,0 30.912,0 C30.145,0 29.378,0.291 28.792,0.877 L19.835,9.834 C18.663,11.005 18.663,12.905 19.835,14.076 C20.422,14.662 21.189,14.955 21.957,14.955 Z" id="Path"></path>
        </g>
    </g>
</svg>