<?xml version="1.0"?>
<svg xmlns="http://www.w3.org/2000/svg" xmlns:xlink="http://www.w3.org/1999/xlink" xmlns:svgjs="http://svgjs.com/svgjs" version="1.1" width="512" height="512" x="0" y="0" viewBox="0 0 512 512" style="enable-background:new 0 0 512 512" xml:space="preserve" class=""><g><g xmlns="http://www.w3.org/2000/svg"><path d="m467 61c-24.814 0-45 20.186-45 45v15h90v-15c0-24.814-20.186-45-45-45z" fill="#f4f4f8" data-original="#000000" style="" class=""/><path d="m467 482c6.46 0 12.188-4.131 14.224-10.254l26.581-80.746h-81.61l26.581 80.746c2.037 6.123 7.764 10.254 14.224 10.254z" fill="#f4f4f8" data-original="#000000" style="" class=""/><path d="m422 151h90v210h-90z" fill="#f4f4f8" data-original="#000000" style="" class=""/><path d="m196 0c-8.284 0-15 6.714-15 15v45h90v-45c0-8.286-6.716-15-15-15z" fill="#f4f4f8" data-original="#000000" style="" class=""/><path d="m30 512h256.3c-9.3-12.601-15.3-28.2-15.3-45 0-8.401-6.599-15-15-15h-241c-8.401 0-15 6.599-15 15v15c0 16.5 13.5 30 30 30z" fill="#f4f4f8" data-original="#000000" style="" class=""/><path d="m349.063 511.898c24.3-1.609 42.937-22.312 42.937-46.666v-420.232c0-8.284-6.716-15-15-15h-76v45c0 8.284-6.716 15-15 15h-120c-8.284 0-15-6.716-15-15v-45h-76c-8.284 0-15 6.716-15 15v377h196c24.853 0 45 20.147 45 45 0 25.866 21.824 46.636 48.063 44.898zm-123.063-345.898h89.582c8.082 0 15.031 6.217 15.402 14.29.396 8.615-6.458 15.71-14.984 15.71h-89.582c-8.082 0-15.031-6.217-15.402-14.29-.396-8.615 6.458-15.71 14.984-15.71zm104.984 105.71c-.371 8.073-7.32 14.29-15.402 14.29h-89.164c-8.082 0-15.031-6.217-15.402-14.29-.396-8.615 6.458-15.71 14.984-15.71h90c8.526 0 15.38 7.095 14.984 15.71zm-205.07-131.811c5.972-5.44 15.277-4.919 20.989.794l19.097 19.096 19.097-19.097c5.712-5.712 15.017-6.234 20.989-.794 6.374 5.807 6.547 15.679.52 21.707l-30 30c-2.93 2.93-6.768 4.395-10.605 4.395s-7.676-1.465-10.605-4.395l-30-30c-6.029-6.027-5.856-15.9.518-21.706zm0 90c5.972-5.44 15.277-4.919 20.989.794l19.097 19.096 19.097-19.097c5.712-5.712 15.017-6.234 20.989-.794 6.374 5.807 6.547 15.679.52 21.707l-30 30c-2.93 2.93-6.768 4.395-10.605 4.395s-7.676-1.465-10.605-4.395l-30-30c-6.029-6.027-5.856-15.9.518-21.706zm50.691 141.706c-2.93 2.93-6.768 4.395-10.605 4.395s-7.676-1.465-10.605-4.395l-29.702-29.702c-5.712-5.712-6.234-15.017-.794-20.989 5.807-6.374 15.679-6.547 21.707-.52l19.394 19.395 19.097-19.097c5.712-5.712 15.017-6.234 20.989-.794 6.374 5.807 6.547 15.679.52 21.707zm49.395 4.395c-8.526 0-15.38-7.095-14.984-15.71.371-8.073 7.32-14.29 15.402-14.29h89.164c8.082 0 15.031 6.217 15.402 14.29.396 8.615-6.458 15.71-14.984 15.71z" fill="#f4f4f8" data-original="#000000" style="" class=""/></g></g></svg>
